<svg width="252" height="207" viewBox="0 0 252 207" fill="none" xmlns="http://www.w3.org/2000/svg">
<path d="M159.967 75.3813C159.967 75.232 160.003 75.0822 160.077 74.9434L169.78 56.8451C169.948 56.5313 170.282 56.342 170.637 56.3615L223.379 59.1565C223.786 59.1776 224.13 59.4652 224.225 59.8615C224.321 60.2665 224.142 60.6719 223.791 60.8763L178.792 86.9417C178.5 87.1117 178.139 87.105 177.851 86.9281L160.406 76.166C160.124 75.9937 159.968 75.6914 159.967 75.3813ZM171.123 58.2339L162.107 75.0507L178.348 85.068L220.186 60.8325L171.123 58.2339Z" fill="url(#paint0_linear_13_1478)"/>
<path d="M148.586 36.1793C148.586 35.8336 148.78 35.5145 149.088 35.3556L196.156 11.316C196.519 11.1319 196.96 11.2072 197.241 11.5042C197.521 11.8006 197.574 12.246 197.37 12.6012L171.383 57.7438C171.215 58.0355 170.9 58.2125 170.563 58.2041L150.094 57.6468C149.606 57.6327 149.214 57.2403 149.2 56.7524L148.586 36.2061C148.586 36.1974 148.586 36.1886 148.586 36.1793ZM194.226 14.3739L150.441 36.7363L151.012 55.827L170.065 56.3463L194.226 14.3739Z" fill="url(#paint1_linear_13_1478)"/>
<path d="M119.807 28.4734C119.807 28.2991 119.856 28.1218 119.956 27.969L148.738 -16.4621C148.961 -16.8028 149.381 -16.9583 149.77 -16.8433C150.16 -16.7266 150.428 -16.3666 150.428 -15.9597C150.428 -15.9597 150.428 -15.9597 150.428 -15.958L150.423 36.1798C150.424 36.5184 150.238 36.8287 149.941 36.9905L131.929 46.7725C131.501 47.0032 130.966 46.8616 130.709 46.4456L119.945 28.9571C119.853 28.8085 119.807 28.6407 119.807 28.4734ZM148.589 -12.8459L121.814 28.4857L131.817 44.7358L148.585 35.6292L148.589 -12.8459Z" fill="url(#paint2_linear_13_1478)"/>
<path d="M91.0422 36.2432C91.0422 36.2268 91.0421 36.2111 91.0433 36.1925L93.8286 -16.7266C93.8508 -17.1335 94.1362 -17.4777 94.5323 -17.5738C94.9279 -17.6698 95.3394 -17.4919 95.5432 -17.1377L121.519 28.0103C121.688 28.3039 121.682 28.6642 121.506 28.9541L110.78 46.4665C110.525 46.883 109.99 47.0258 109.562 46.796L91.5265 37.0541C91.2271 36.8935 91.0425 36.5801 91.0422 36.2432ZM95.5007 -13.5211L92.9095 35.7083L109.668 44.7597L119.653 28.4566L95.5007 -13.5211Z" fill="url(#paint3_linear_13_1478)"/>
<path d="M46.0459 10.1735C46.0456 9.92694 46.1447 9.6814 46.3322 9.50281C46.6282 9.2215 47.0726 9.16913 47.4249 9.37394L92.4212 35.4515C92.713 35.6226 92.8598 35.9663 92.8811 36.2764L92.3159 56.8164C92.3019 57.3043 91.9114 57.6977 91.4239 57.7128L70.9517 58.3155C70.5961 58.3252 70.2665 58.1292 70.1058 57.8122L46.1463 10.5919C46.0788 10.4579 46.0461 10.3158 46.0459 10.1735ZM91.0277 36.7734L49.1923 12.528L71.4789 56.4536L90.501 55.8939L91.0277 36.7734Z" fill="url(#paint4_linear_13_1478)"/>
<path d="M18.0457 57.3958C18.0456 57.3072 18.0583 57.2197 18.0844 57.1328C18.1995 56.7415 18.5583 56.473 18.965 56.4726L70.9281 56.4814C71.2657 56.481 71.5761 56.6666 71.7368 56.9655L81.4803 75.0405C81.7103 75.4652 81.5714 76.0057 81.1551 76.2639L63.7299 87.0553C63.4274 87.2428 63.0439 87.238 62.7456 87.0436L18.4649 58.1677C18.1992 57.9955 18.0461 57.7024 18.0457 57.3958ZM70.38 58.327L22.0672 58.3176L63.2589 85.1794L79.451 75.1529L70.38 58.327Z" fill="url(#paint5_linear_13_1478)"/>
<path d="M17.3292 112.34C17.3288 112.016 17.4999 111.708 17.789 111.54L62.792 85.4813C63.0841 85.3137 63.4455 85.3186 63.7327 85.4949L81.1789 96.2553C81.5969 96.5107 81.7364 97.0492 81.5074 97.4779L71.7982 115.567C71.6301 115.883 71.295 116.07 70.94 116.051L18.1994 113.26C17.7926 113.238 17.4484 112.95 17.3538 112.555C17.3375 112.483 17.3292 112.411 17.3292 112.34ZM63.2362 87.355L21.3947 111.584L70.4557 114.179L79.4767 97.3706L63.2362 87.355Z" fill="url(#paint6_linear_13_1478)"/>
<path d="M44.0893 160.282C44.0891 160.123 44.1296 159.963 44.2131 159.819L70.1966 114.669C70.3654 114.377 70.6807 114.2 71.0176 114.209L91.4912 114.777C91.9786 114.791 92.3707 115.183 92.3857 115.671L92.9912 136.21C92.9946 136.583 92.8055 136.898 92.4896 137.061L45.4271 161.104C45.0636 161.288 44.6231 161.213 44.3427 160.916C44.1764 160.739 44.0896 160.512 44.0893 160.282ZM71.5141 116.068L47.3555 158.046L91.1356 135.68L90.5729 116.596L71.5141 116.068Z" fill="url(#paint7_linear_13_1478)"/>
<path d="M91.1527 188.38C91.1527 188.38 91.1527 188.38 91.1527 188.378L91.1588 136.237C91.1584 135.898 91.344 135.588 91.6413 135.425L109.656 125.642C110.084 125.409 110.619 125.553 110.875 125.97L121.633 143.465C121.818 143.765 121.816 144.153 121.622 144.45L92.8428 188.881C92.6207 189.223 92.2008 189.379 91.8108 189.264C91.4214 189.147 91.1532 188.787 91.1527 188.38ZM92.9965 136.788L92.991 185.266L119.762 143.935L109.765 127.679L92.9965 136.788Z" fill="url(#paint8_linear_13_1478)"/>
<path d="M119.935 143.944C119.935 143.777 119.981 143.609 120.071 143.459L130.801 125.947C131.056 125.531 131.591 125.388 132.02 125.62L150.052 135.37C150.366 135.537 150.556 135.846 150.534 136.231L147.748 189.142C147.726 189.55 147.44 189.894 147.045 189.99C146.649 190.086 146.237 189.908 146.034 189.553L120.058 144.403C119.976 144.261 119.935 144.103 119.935 143.944ZM131.913 127.655L121.924 143.958L146.076 185.937L148.668 136.715L131.913 127.655Z" fill="url(#paint9_linear_13_1478)"/>
<path d="M148.697 136.175C148.697 136.165 148.697 136.157 148.697 136.148L149.263 115.607C149.277 115.119 149.668 114.726 150.155 114.712L170.628 114.105C170.984 114.096 171.313 114.292 171.474 114.609L195.43 161.821C195.614 162.187 195.537 162.628 195.243 162.909C194.948 163.191 194.503 163.244 194.151 163.038L149.156 136.972C148.872 136.807 148.697 136.502 148.697 136.175ZM151.077 116.53L150.55 135.65L192.384 159.885L170.1 115.967L151.077 116.53Z" fill="url(#paint10_linear_13_1478)"/>
<path d="M159.986 96.9475C159.985 96.638 160.141 96.3346 160.422 96.1618L177.851 85.3685C178.153 85.1811 178.537 85.1859 178.835 85.3803L223.113 114.253C223.454 114.476 223.611 114.899 223.493 115.288C223.377 115.679 223.019 115.948 222.612 115.948L170.653 115.943C170.316 115.943 170.005 115.758 169.845 115.46L160.097 97.3863C160.022 97.2465 159.986 97.0973 159.986 96.9475ZM178.322 87.2445L162.127 97.2733L171.2 114.097L219.51 114.103L178.322 87.2445Z" fill="url(#paint11_linear_13_1478)"/>
<path d="M62.3294 86.271C62.329 85.9504 62.4937 85.6529 62.7654 85.4848L79.4492 75.1424L70.1162 57.8306C69.9648 57.5498 69.9685 57.2093 70.128 56.9317C70.2874 56.654 70.5783 56.4788 70.8979 56.4697L90.4998 55.882L91.0427 36.2158C91.0522 35.8969 91.2251 35.6029 91.5014 35.4441C91.7778 35.2834 92.1165 35.2778 92.3973 35.4285L109.671 44.7516L119.944 27.987C120.111 27.7146 120.407 27.5487 120.726 27.5484C121.045 27.548 121.341 27.7133 121.509 27.9853L131.814 44.727L149.069 35.3657C149.35 35.2138 149.688 35.2192 149.965 35.3792C150.241 35.5375 150.415 35.8311 150.425 36.15L151.014 55.8149L170.615 56.3592C170.934 56.3676 171.226 56.5421 171.386 56.8194C171.546 57.0967 171.55 57.4371 171.399 57.7183L162.108 75.0507L178.814 85.3561C179.359 85.6907 179.36 86.5913 178.816 86.9271L162.132 97.273L171.462 114.581C171.614 114.86 171.61 115.201 171.451 115.48C171.291 115.758 171 115.932 170.681 115.942L151.082 116.529L150.536 136.2C150.526 136.518 150.354 136.812 150.077 136.971C149.801 137.132 149.463 137.138 149.181 136.987L131.906 127.664L121.638 144.427C121.47 144.699 121.174 144.865 120.856 144.865C120.537 144.866 120.24 144.7 120.073 144.428L109.763 127.688L92.51 137.05C92.2295 137.202 91.8908 137.196 91.6141 137.036C91.3373 136.878 91.1639 136.584 91.1536 136.265L90.5671 116.596L70.9639 116.053C70.6444 116.044 70.3531 115.87 70.193 115.592C70.0329 115.313 70.0291 114.973 70.1793 114.694L79.4739 97.3646L62.7671 87.0558C62.495 86.8888 62.3297 86.5916 62.3294 86.271ZM81.5894 75.4682C81.5897 75.7783 81.4338 76.0793 81.1534 76.2545L65.0002 86.2681L81.1755 96.2493C81.5935 96.5065 81.7341 97.0433 81.5034 97.472L72.505 114.249L91.4848 114.776C91.9723 114.79 92.3643 115.182 92.3794 115.67L92.9472 134.714L109.651 125.65C110.079 125.419 110.614 125.561 110.87 125.977L120.852 142.184L130.793 125.955C131.048 125.538 131.582 125.395 132.012 125.626L148.738 134.652L149.266 115.607C149.28 115.119 149.671 114.726 150.158 114.711L169.135 114.142L160.101 97.3849C159.873 96.9561 160.011 96.4196 160.426 96.1615L176.58 86.1444L160.404 76.1666C159.989 75.9077 159.849 75.3674 160.076 74.9439L169.072 58.1627L150.095 57.6364C149.608 57.6224 149.216 57.2305 149.201 56.742L148.631 37.702L131.924 46.7655C131.496 46.9968 130.961 46.8551 130.705 46.4392L120.728 30.2305L110.782 46.4613C110.526 46.8778 109.991 47.0206 109.564 46.7903L92.8397 37.7638L92.3141 56.8051C92.3001 57.2936 91.909 57.6863 91.4215 57.7015L72.443 58.2699L81.4785 75.0311C81.553 75.1692 81.5892 75.3189 81.5894 75.4682Z" fill="url(#paint12_linear_13_1478)"/>
<path d="M17.2101 145.828L17.0781 26.8142C17.0778 26.4848 17.2523 26.1803 17.5368 26.0156L120.198 -33.6055C120.482 -33.7713 120.833 -33.7717 121.117 -33.6065L223.912 25.7862C224.196 25.9497 224.372 26.2544 224.372 26.5838L224.504 145.598C224.504 145.928 224.33 146.233 224.045 146.397L121.383 206.021C121.098 206.187 120.748 206.187 120.463 206.022L17.6711 146.625C17.3862 146.462 17.2104 146.158 17.2101 145.828ZM18.9175 27.3449L19.0483 145.293L120.921 204.159L222.665 145.067L222.534 27.1192L120.659 -31.7435L18.9175 27.3449Z" fill="url(#paint13_linear_13_1478)"/>
<path d="M146.129 190.052C146.129 189.726 146.3 189.422 146.585 189.254L194.142 161.451C194.463 161.263 194.865 161.288 195.161 161.514C195.457 161.737 195.59 162.12 195.494 162.481L185.644 200.19C185.515 200.683 185.013 200.978 184.523 200.848L146.816 190.943C146.456 190.848 146.188 190.545 146.138 190.177C146.132 190.135 146.129 190.094 146.129 190.052ZM193.154 164.163L149.433 189.724L184.098 198.831L193.154 164.163Z" fill="url(#paint14_linear_13_1478)"/>
<path d="M148.598 -15.9488C148.598 -15.9866 148.6 -16.0263 148.605 -16.0659C148.652 -16.4356 148.916 -16.7419 149.275 -16.8396L186.75 -27.1328C187.239 -27.2668 187.745 -26.9788 187.88 -26.4876L198.177 11.222C198.274 11.5821 198.148 11.9676 197.853 12.1953C197.56 12.4241 197.157 12.4514 196.834 12.2663L149.062 -15.15C148.773 -15.3147 148.598 -15.6206 148.598 -15.9488ZM186.349 -25.109L151.896 -15.6458L195.816 9.55913L186.349 -25.109Z" fill="url(#paint15_linear_13_1478)"/>
<path d="M222.407 60.0928C222.407 59.722 222.629 59.3848 222.971 59.2422C223.314 59.0978 223.709 59.175 223.973 59.4358L251.596 86.853C251.956 87.2128 251.961 87.7964 251.603 88.1576L224.202 115.96C223.941 116.227 223.545 116.306 223.202 116.166C222.857 116.024 222.631 115.689 222.63 115.316L222.407 60.0951L222.407 60.0928ZM249.65 87.5162L224.254 62.3106L224.459 113.077L249.65 87.5162Z" fill="url(#paint16_linear_13_1478)"/>
<path d="M-10.2884 84.9042C-10.2886 84.6698 -10.2 84.4342 -10.0224 84.255L17.3782 56.4528C17.6393 56.1855 18.0349 56.1063 18.379 56.2465C18.7237 56.3883 18.9495 56.7233 18.951 57.0958L19.1738 112.317L19.1738 112.319C19.1742 112.69 18.952 113.027 18.61 113.169C18.2674 113.314 17.8722 113.237 17.6082 112.976L-10.0152 85.5585C-10.1972 85.3774 -10.2881 85.142 -10.2884 84.9042ZM17.1205 59.3357L-8.06959 84.8964L17.3261 110.103L17.1205 59.3357Z" fill="url(#paint17_linear_13_1478)"/>
<path d="M43.3359 160.953C43.3356 160.671 43.4649 160.399 43.6947 160.221C43.9902 159.994 44.3911 159.967 44.7137 160.154L92.411 187.7C92.7325 187.885 92.9159 188.255 92.8634 188.618C92.815 188.989 92.5493 189.292 92.1897 189.39L54.5389 199.498C54.0481 199.63 53.5441 199.337 53.4134 198.846L43.367 161.192C43.346 161.112 43.336 161.033 43.3359 160.953ZM89.5658 188.184L45.716 162.86L54.9521 197.476L89.5658 188.184Z" fill="url(#paint18_linear_13_1478)"/>
<path d="M46.0459 10.1727C46.0458 10.0917 46.0567 10.01 46.0781 9.92958L56.2913 -27.8114C56.3556 -28.0476 56.5099 -28.2477 56.7218 -28.3704C56.9337 -28.4919 57.1853 -28.5242 57.4201 -28.4597L94.9168 -18.2392C95.2748 -18.1405 95.5395 -17.8365 95.587 -17.467C95.6287 -17.0852 95.4542 -16.7353 95.1331 -16.5495L47.4231 10.971C47.1009 11.1567 46.6976 11.1303 46.404 10.9022C46.1755 10.7258 46.0462 10.4537 46.0459 10.1727ZM57.8243 -26.4374L48.4351 8.26037L92.2973 -17.0419L57.8243 -26.4374Z" fill="url(#paint19_linear_13_1478)"/>
<defs>
<linearGradient id="paint0_linear_13_1478" x1="295.182" y1="175.807" x2="-297.691" y2="-441.699" gradientUnits="userSpaceOnUse">
<stop offset="0.0319"/>
<stop offset="0.1194" stop-color="#060402"/>
<stop offset="0.2322" stop-color="#161106"/>
<stop offset="0.3587" stop-color="#30260E"/>
<stop offset="0.4954" stop-color="#554319"/>
<stop offset="0.6386" stop-color="#846926"/>
<stop offset="0.6471" stop-color="#876B27"/>
<stop offset="0.7651" stop-color="#564419"/>
<stop offset="0.9242" stop-color="#181307"/>
<stop offset="1"/>
</linearGradient>
<linearGradient id="paint1_linear_13_1478" x1="301.964" y1="169.295" x2="-290.909" y2="-448.211" gradientUnits="userSpaceOnUse">
<stop offset="0.0319"/>
<stop offset="0.1194" stop-color="#060402"/>
<stop offset="0.2322" stop-color="#161106"/>
<stop offset="0.3587" stop-color="#30260E"/>
<stop offset="0.4954" stop-color="#554319"/>
<stop offset="0.6386" stop-color="#846926"/>
<stop offset="0.6471" stop-color="#876B27"/>
<stop offset="0.7651" stop-color="#564419"/>
<stop offset="0.9242" stop-color="#181307"/>
<stop offset="1"/>
</linearGradient>
<linearGradient id="paint2_linear_13_1478" x1="294.491" y1="176.471" x2="-298.383" y2="-441.036" gradientUnits="userSpaceOnUse">
<stop offset="0.0319"/>
<stop offset="0.1194" stop-color="#060402"/>
<stop offset="0.2322" stop-color="#161106"/>
<stop offset="0.3587" stop-color="#30260E"/>
<stop offset="0.4954" stop-color="#554319"/>
<stop offset="0.6386" stop-color="#846926"/>
<stop offset="0.6471" stop-color="#876B27"/>
<stop offset="0.7651" stop-color="#564419"/>
<stop offset="0.9242" stop-color="#181307"/>
<stop offset="1"/>
</linearGradient>
<linearGradient id="paint3_linear_13_1478" x1="272.477" y1="197.604" x2="-320.394" y2="-419.9" gradientUnits="userSpaceOnUse">
<stop offset="0.0319"/>
<stop offset="0.1194" stop-color="#060402"/>
<stop offset="0.2322" stop-color="#161106"/>
<stop offset="0.3587" stop-color="#30260E"/>
<stop offset="0.4954" stop-color="#554319"/>
<stop offset="0.6386" stop-color="#846926"/>
<stop offset="0.6471" stop-color="#876B27"/>
<stop offset="0.7651" stop-color="#564419"/>
<stop offset="0.9242" stop-color="#181307"/>
<stop offset="1"/>
</linearGradient>
<linearGradient id="paint4_linear_13_1478" x1="247.82" y1="221.281" x2="-345.055" y2="-396.226" gradientUnits="userSpaceOnUse">
<stop offset="0.0319"/>
<stop offset="0.1194" stop-color="#060402"/>
<stop offset="0.2322" stop-color="#161106"/>
<stop offset="0.3587" stop-color="#30260E"/>
<stop offset="0.4954" stop-color="#554319"/>
<stop offset="0.6386" stop-color="#846926"/>
<stop offset="0.6471" stop-color="#876B27"/>
<stop offset="0.7651" stop-color="#564419"/>
<stop offset="0.9242" stop-color="#181307"/>
<stop offset="1"/>
</linearGradient>
<linearGradient id="paint5_linear_13_1478" x1="223.503" y1="244.626" x2="-369.367" y2="-372.877" gradientUnits="userSpaceOnUse">
<stop offset="0.0319"/>
<stop offset="0.1194" stop-color="#060402"/>
<stop offset="0.2322" stop-color="#161106"/>
<stop offset="0.3587" stop-color="#30260E"/>
<stop offset="0.4954" stop-color="#554319"/>
<stop offset="0.6386" stop-color="#846926"/>
<stop offset="0.6471" stop-color="#876B27"/>
<stop offset="0.7651" stop-color="#564419"/>
<stop offset="0.9242" stop-color="#181307"/>
<stop offset="1"/>
</linearGradient>
<linearGradient id="paint6_linear_13_1478" x1="202.324" y1="264.962" x2="-390.549" y2="-352.544" gradientUnits="userSpaceOnUse">
<stop offset="0.0319"/>
<stop offset="0.1194" stop-color="#060402"/>
<stop offset="0.2322" stop-color="#161106"/>
<stop offset="0.3587" stop-color="#30260E"/>
<stop offset="0.4954" stop-color="#554319"/>
<stop offset="0.6386" stop-color="#846926"/>
<stop offset="0.6471" stop-color="#876B27"/>
<stop offset="0.7651" stop-color="#564419"/>
<stop offset="0.9242" stop-color="#181307"/>
<stop offset="1"/>
</linearGradient>
<linearGradient id="paint7_linear_13_1478" x1="195.539" y1="271.473" x2="-397.33" y2="-346.029" gradientUnits="userSpaceOnUse">
<stop offset="0.0319"/>
<stop offset="0.1194" stop-color="#060402"/>
<stop offset="0.2322" stop-color="#161106"/>
<stop offset="0.3587" stop-color="#30260E"/>
<stop offset="0.4954" stop-color="#554319"/>
<stop offset="0.6386" stop-color="#846926"/>
<stop offset="0.6471" stop-color="#876B27"/>
<stop offset="0.7651" stop-color="#564419"/>
<stop offset="0.9242" stop-color="#181307"/>
<stop offset="1"/>
</linearGradient>
<linearGradient id="paint8_linear_13_1478" x1="203.014" y1="264.298" x2="-389.859" y2="-353.208" gradientUnits="userSpaceOnUse">
<stop offset="0.0319"/>
<stop offset="0.1194" stop-color="#060402"/>
<stop offset="0.2322" stop-color="#161106"/>
<stop offset="0.3587" stop-color="#30260E"/>
<stop offset="0.4954" stop-color="#554319"/>
<stop offset="0.6386" stop-color="#846926"/>
<stop offset="0.6471" stop-color="#876B27"/>
<stop offset="0.7651" stop-color="#564419"/>
<stop offset="0.9242" stop-color="#181307"/>
<stop offset="1"/>
</linearGradient>
<linearGradient id="paint9_linear_13_1478" x1="225.025" y1="243.165" x2="-367.846" y2="-374.339" gradientUnits="userSpaceOnUse">
<stop offset="0.0319"/>
<stop offset="0.1194" stop-color="#060402"/>
<stop offset="0.2322" stop-color="#161106"/>
<stop offset="0.3587" stop-color="#30260E"/>
<stop offset="0.4954" stop-color="#554319"/>
<stop offset="0.6386" stop-color="#846926"/>
<stop offset="0.6471" stop-color="#876B27"/>
<stop offset="0.7651" stop-color="#564419"/>
<stop offset="0.9242" stop-color="#181307"/>
<stop offset="1"/>
</linearGradient>
<linearGradient id="paint10_linear_13_1478" x1="249.68" y1="219.493" x2="-343.19" y2="-398.01" gradientUnits="userSpaceOnUse">
<stop offset="0.0319"/>
<stop offset="0.1194" stop-color="#060402"/>
<stop offset="0.2322" stop-color="#161106"/>
<stop offset="0.3587" stop-color="#30260E"/>
<stop offset="0.4954" stop-color="#554319"/>
<stop offset="0.6386" stop-color="#846926"/>
<stop offset="0.6471" stop-color="#876B27"/>
<stop offset="0.7651" stop-color="#564419"/>
<stop offset="0.9242" stop-color="#181307"/>
<stop offset="1"/>
</linearGradient>
<linearGradient id="paint11_linear_13_1478" x1="273.998" y1="196.145" x2="-318.874" y2="-421.359" gradientUnits="userSpaceOnUse">
<stop offset="0.0319"/>
<stop offset="0.1194" stop-color="#060402"/>
<stop offset="0.2322" stop-color="#161106"/>
<stop offset="0.3587" stop-color="#30260E"/>
<stop offset="0.4954" stop-color="#554319"/>
<stop offset="0.6386" stop-color="#846926"/>
<stop offset="0.6471" stop-color="#876B27"/>
<stop offset="0.7651" stop-color="#564419"/>
<stop offset="0.9242" stop-color="#181307"/>
<stop offset="1"/>
</linearGradient>
<linearGradient id="paint12_linear_13_1478" x1="248.753" y1="220.384" x2="-344.12" y2="-397.121" gradientUnits="userSpaceOnUse">
<stop offset="0.0319"/>
<stop offset="0.1194" stop-color="#060402"/>
<stop offset="0.2322" stop-color="#161106"/>
<stop offset="0.3587" stop-color="#30260E"/>
<stop offset="0.4954" stop-color="#554319"/>
<stop offset="0.6386" stop-color="#846926"/>
<stop offset="0.6471" stop-color="#876B27"/>
<stop offset="0.7651" stop-color="#564419"/>
<stop offset="0.9242" stop-color="#181307"/>
<stop offset="1"/>
</linearGradient>
<linearGradient id="paint13_linear_13_1478" x1="248.754" y1="220.382" x2="-344.119" y2="-397.123" gradientUnits="userSpaceOnUse">
<stop offset="0.0319"/>
<stop offset="0.1194" stop-color="#060402"/>
<stop offset="0.2322" stop-color="#161106"/>
<stop offset="0.3587" stop-color="#30260E"/>
<stop offset="0.4954" stop-color="#554319"/>
<stop offset="0.6386" stop-color="#846926"/>
<stop offset="0.6471" stop-color="#876B27"/>
<stop offset="0.7651" stop-color="#564419"/>
<stop offset="0.9242" stop-color="#181307"/>
<stop offset="1"/>
</linearGradient>
<linearGradient id="paint14_linear_13_1478" x1="230.096" y1="238.296" x2="-362.774" y2="-379.206" gradientUnits="userSpaceOnUse">
<stop offset="0.0319"/>
<stop offset="0.1194" stop-color="#060402"/>
<stop offset="0.2322" stop-color="#161106"/>
<stop offset="0.3587" stop-color="#30260E"/>
<stop offset="0.4954" stop-color="#554319"/>
<stop offset="0.6386" stop-color="#846926"/>
<stop offset="0.6471" stop-color="#876B27"/>
<stop offset="0.7651" stop-color="#564419"/>
<stop offset="0.9242" stop-color="#181307"/>
<stop offset="1"/>
</linearGradient>
<linearGradient id="paint15_linear_13_1478" x1="326.951" y1="145.305" x2="-265.919" y2="-472.198" gradientUnits="userSpaceOnUse">
<stop offset="0.0319"/>
<stop offset="0.1194" stop-color="#060402"/>
<stop offset="0.2322" stop-color="#161106"/>
<stop offset="0.3587" stop-color="#30260E"/>
<stop offset="0.4954" stop-color="#554319"/>
<stop offset="0.6386" stop-color="#846926"/>
<stop offset="0.6471" stop-color="#876B27"/>
<stop offset="0.7651" stop-color="#564419"/>
<stop offset="0.9242" stop-color="#181307"/>
<stop offset="1"/>
</linearGradient>
<linearGradient id="paint16_linear_13_1478" x1="301.978" y1="169.282" x2="-290.895" y2="-448.223" gradientUnits="userSpaceOnUse">
<stop offset="0.0319"/>
<stop offset="0.1194" stop-color="#060402"/>
<stop offset="0.2322" stop-color="#161106"/>
<stop offset="0.3587" stop-color="#30260E"/>
<stop offset="0.4954" stop-color="#554319"/>
<stop offset="0.6386" stop-color="#846926"/>
<stop offset="0.6471" stop-color="#876B27"/>
<stop offset="0.7651" stop-color="#564419"/>
<stop offset="0.9242" stop-color="#181307"/>
<stop offset="1"/>
</linearGradient>
<linearGradient id="paint17_linear_13_1478" x1="195.528" y1="271.483" x2="-397.343" y2="-346.021" gradientUnits="userSpaceOnUse">
<stop offset="0.0319"/>
<stop offset="0.1194" stop-color="#060402"/>
<stop offset="0.2322" stop-color="#161106"/>
<stop offset="0.3587" stop-color="#30260E"/>
<stop offset="0.4954" stop-color="#554319"/>
<stop offset="0.6386" stop-color="#846926"/>
<stop offset="0.6471" stop-color="#876B27"/>
<stop offset="0.7651" stop-color="#564419"/>
<stop offset="0.9242" stop-color="#181307"/>
<stop offset="1"/>
</linearGradient>
<linearGradient id="paint18_linear_13_1478" x1="170.43" y1="295.581" x2="-422.443" y2="-321.924" gradientUnits="userSpaceOnUse">
<stop offset="0.0319"/>
<stop offset="0.1194" stop-color="#060402"/>
<stop offset="0.2322" stop-color="#161106"/>
<stop offset="0.3587" stop-color="#30260E"/>
<stop offset="0.4954" stop-color="#554319"/>
<stop offset="0.6386" stop-color="#846926"/>
<stop offset="0.6471" stop-color="#876B27"/>
<stop offset="0.7651" stop-color="#564419"/>
<stop offset="0.9242" stop-color="#181307"/>
<stop offset="1"/>
</linearGradient>
<linearGradient id="paint19_linear_13_1478" x1="267.372" y1="202.507" x2="-325.501" y2="-414.999" gradientUnits="userSpaceOnUse">
<stop offset="0.0319"/>
<stop offset="0.1194" stop-color="#060402"/>
<stop offset="0.2322" stop-color="#161106"/>
<stop offset="0.3587" stop-color="#30260E"/>
<stop offset="0.4954" stop-color="#554319"/>
<stop offset="0.6386" stop-color="#846926"/>
<stop offset="0.6471" stop-color="#876B27"/>
<stop offset="0.7651" stop-color="#564419"/>
<stop offset="0.9242" stop-color="#181307"/>
<stop offset="1"/>
</linearGradient>
</defs>
</svg>
